# xmcd CD database file
#
# Track frame offsets:
#	150
#	9867
#	20230
#	39540
#	50387
#	58030
#	68505
#	82362
#	95337
#	105680
#	122932
#	134462
#	143992
#	159917
#	174875
#	187760
#	200442
#	207172
#	224882
#	229797
#	240025
#	247895
#
# Disc length: 3433 seconds
#
# Revision: 0
# Processed by: cddbd v1.5.1PL2 Copyright (c) Steve Scherf et al.
# Submitted via: CDex 1.51
#
DISCID=2d0d6716
DTITLE=Calude Corbeil (Rachel Martel au piano) - J'parl'pour parler....
DYEAR=1994
DGENRE=Québécois
TTITLE0=à la dérive
TTITLE1=chanson de l'adieu
TTITLE2=en rôdant dans le parc Lafontaine
TTITLE3=Isabeau s'y promène
TTITLE4=en regardant la lune
TTITLE5=ouvre tes yeux bleus
TTITLE6=la mess de minuit
TTITLE7=soir d'hiver
TTITLE8=les deux orphelines
TTITLE9=chanson de printemps
TTITLE10=les regrets
TTITLE11=la vieille maison grise
TTITLE12=soir d'été
TTITLE13=ah! qui brûla d'amour
TTITLE14=prière à St-Antoine
TTITLE15=la chanson du laboureur
TTITLE16=la montre-bracelet
TTITLE17=tristesse
TTITLE18=le jeu de golf
TTITLE19=si tu voulais
TTITLE20=hommage des gueux à la France
TTITLE21=un canadien errant
EXTD=YEAR: 1994
EXTT0=
EXTT1=
EXTT2=
EXTT3=
EXTT4=
EXTT5=
EXTT6=
EXTT7=
EXTT8=
EXTT9=
EXTT10=
EXTT11=
EXTT12=
EXTT13=
EXTT14=
EXTT15=
EXTT16=
EXTT17=
EXTT18=
EXTT19=
EXTT20=
EXTT21=
PLAYORDER=
